<mxfile host="app.diagrams.net" modified="2024-03-14T14:16:40.657Z" agent="Mozilla/5.0 (Windows NT 10.0; Win64; x64) AppleWebKit/537.36 (KHTML, like Gecko) Chrome/122.0.0.0 Safari/537.36" version="24.0.5" etag="HcSiVY9DClDIHAadROil" type="github">
  <diagram name="หน้า-1" id="LU75V2yqk5B9vrltkOxm">
    <mxGraphModel>
      <root>
        <mxCell id="0" />
        <mxCell id="1" parent="0" />
      </root>
    </mxGraphModel>
  </diagram>
</mxfile>
